<?xml version="1.0" encoding="UTF-8"?>
<svg id="Layer_1" xmlns="http://www.w3.org/2000/svg" version="1.1" viewBox="0 0 994.6 261.7">
  <!-- Generator: Adobe Illustrator 29.7.1, SVG Export Plug-In . SVG Version: 2.1.1 Build 8)  -->
  <defs>
    <style>
      .st0 {
        fill: #fff;
      }

      .st1 {
        fill: #00b5c6;
      }
    </style>
  </defs>
  <g>
    <path class="st0" d="M563.14,0h180.52v43.19c-22.26.65-44.48.99-66.75.95-4.02,0-8.05,0-12.08,0-7.56,0-15.12,0-22.68-.02-8.63,0-17.27-.02-25.9-.02-17.7,0-35.41-.02-53.11-.04v43.19h111.42v43.19h-111.42l.86,87.23,179.65.86v43.19h-180.52v-43.19h-44.91V43.19h44.91V0Z"/>
    <path class="st1" d="M833.48,0h158.06v44.05h-157.2v43.19h112.28v43.19h44.91v88.1h-44.91v43.19h-158.06v-44.05h157.2v-86.37h-112.28v-43.19h-44.91v-44.91h44.91V0Z"/>
    <g>
      <polygon class="st0" points="315.25 87.23 428.4 87.23 428.4 130.42 473.31 130.42 473.31 218.52 428.4 218.52 428.4 261.7 270.34 261.7 270.34 217.65 427.54 217.65 427.54 131.28 315.25 131.28 315.25 87.23"/>
      <polygon class="st0" points="315.25 0 473.31 0 473.31 44.05 315.25 44.05 315.25 87.23 270.34 87.23 270.34 43.19 315.25 43.19 315.25 0"/>
    </g>
    <g>
      <polygon class="st0" points="0 44.05 44.91 44.05 45.78 217.65 225.43 218.52 225.43 261.7 44.91 261.7 44.91 218.52 0 218.52 0 44.05"/>
      <rect class="st0" x="44.91" y="0" width="180.52" height="43.19"/>
    </g>
  </g>
</svg>